<svg width="11" height="11" viewBox="0 0 11 11" fill="none" xmlns="http://www.w3.org/2000/svg">
<path fill-rule="evenodd" clip-rule="evenodd" d="M10.7583 0.338868C10.9131 0.555664 11 0.849663 11 1.15621C11 1.46276 10.9131 1.75676 10.7583 1.97356L4.5713 10.6387C4.48954 10.7533 4.39247 10.8441 4.28563 10.9061C4.17879 10.9681 4.06428 11 3.94864 11C3.83299 11 3.71848 10.9681 3.61165 10.9061C3.50481 10.8441 3.40774 10.7533 3.32597 10.6387L0.252 6.33427C0.173161 6.22763 0.110277 6.10006 0.0670156 5.95901C0.0237547 5.81797 0.000983583 5.66627 3.11662e-05 5.51276C-0.000921251 5.35926 0.0199641 5.20703 0.0614684 5.06495C0.102973 4.92288 0.164265 4.7938 0.241769 4.68525C0.319272 4.5767 0.411435 4.49086 0.51288 4.43273C0.614325 4.37461 0.723019 4.34535 0.832622 4.34669C0.942225 4.34802 1.05054 4.37991 1.15125 4.4405C1.25196 4.50109 1.34304 4.58916 1.41919 4.69958L3.94836 8.24179L9.59058 0.338868C9.66724 0.231438 9.75826 0.146216 9.85844 0.0880717C9.95863 0.0299272 10.066 0 10.1745 0C10.2829 0 10.3903 0.0299272 10.4905 0.0880717C10.5906 0.146216 10.6817 0.231438 10.7583 0.338868Z" fill="white"/>
</svg>
