<svg width="20" height="16" viewBox="0 0 20 16" fill="none" xmlns="http://www.w3.org/2000/svg">
<path d="M1.42592 1.38976C1.09994 1.07103 1.10097 0.546206 1.4282 0.228749C1.74344 -0.0770769 2.24493 -0.0760939 2.55897 0.230965L16.6044 13.9643C16.9286 14.2813 16.9296 14.8026 16.6067 15.1209C16.2921 15.4309 15.7872 15.4319 15.4714 15.1231L13.672 13.3637C13.4064 13.104 13.0198 13.0168 12.6604 13.1105C11.7873 13.3383 10.8728 13.457 9.92194 13.457C5.52146 13.457 1.74297 10.8661 0.0794216 7.16018C-0.0262212 6.92484 -0.0264852 6.65569 0.0788192 6.42019C0.561164 5.34153 1.22384 4.35899 2.0321 3.50659C2.43567 3.08096 2.4613 2.40213 2.04192 1.99207L1.42592 1.38976ZM9.92194 4.12364C10.6453 4.12364 11.3389 4.40459 11.8504 4.90469C12.3619 5.40479 12.6492 6.08307 12.6492 6.79031C12.6499 7.21449 12.1496 7.34182 11.8463 7.04527L9.67482 4.92201C9.37096 4.62491 9.49696 4.12303 9.92194 4.12364ZM9.92194 0.123644C14.3221 0.123644 18.1003 2.71414 19.7641 6.41955C19.87 6.65541 19.87 6.9252 19.7641 7.16107C19.107 8.62497 18.1169 9.9214 16.8711 10.9523C16.5419 11.2247 16.0632 11.1846 15.7587 10.8848C15.3636 10.4958 15.426 9.84349 15.8448 9.48012C16.5858 8.83723 17.2138 8.07774 17.7019 7.23194C17.8598 6.95844 17.86 6.62206 17.7025 6.34839C16.9694 5.07504 15.9195 3.99952 14.6468 3.22351C13.2294 2.35927 11.5924 1.90121 9.92194 1.90142C9.12149 1.90142 8.33291 2.00583 7.58015 2.19589C7.25049 2.27913 6.8973 2.1983 6.65342 1.96139C6.17723 1.4988 6.33093 0.703897 6.97052 0.525932C7.90829 0.265 8.89859 0.123644 9.92194 0.123644ZM2.14198 6.3485C1.9842 6.62215 1.98389 6.95862 2.1415 7.23237C2.87458 8.50566 3.9244 9.58113 5.19706 10.3571C6.6145 11.2214 8.25149 11.6794 9.92194 11.6792C10.7084 11.6792 10.9947 10.7605 10.4336 10.2095L9.91654 9.70166C9.75522 9.54323 9.54348 9.45032 9.32318 9.39938C8.82238 9.28358 8.36175 9.03373 7.99464 8.67478C7.63123 8.31944 7.37716 7.87449 7.25719 7.39053C7.20162 7.16638 7.10458 6.95085 6.9397 6.78917L4.75176 4.64356C4.38417 4.28308 3.79807 4.25656 3.44005 4.62655C2.94349 5.13972 2.50611 5.71697 2.14198 6.3485Z" fill="black"/>
</svg>
